<svg width="20" height="20" viewBox="0 0 20 20" fill="none" xmlns="http://www.w3.org/2000/svg">
<path d="M15.9466 11.0347H3.82098C2.66982 11.0347 2.20935 11.5258 2.20935 12.7461V15.8465C2.20935 17.0668 2.66982 17.5579 3.82098 17.5579H15.9466C17.0977 17.5579 17.5582 17.0668 17.5582 15.8465V12.7461C17.5582 11.5258 17.0977 11.0347 15.9466 11.0347Z" fill="white"/>
<path d="M10.5745 2.20898H3.82098C2.66982 2.20898 2.20935 2.70015 2.20935 3.92038V7.02085C2.20935 8.24108 2.66982 8.73224 3.82098 8.73224H10.5745C11.7256 8.73224 12.1861 8.24108 12.1861 7.02085V3.92038C12.1861 2.70015 11.7256 2.20898 10.5745 2.20898Z" fill="white"/>
</svg>
