<svg width="47" height="39" viewBox="0 0 47 39" fill="none" xmlns="http://www.w3.org/2000/svg">
<g filter="url(#filter0_d_121_2622)">
<path d="M38.4112 6.08684L38.3728 5.82876L38.3328 5.83797C38.0599 4.56144 37.431 3.38828 36.5191 2.45424C35.6072 1.5202 34.4494 0.863458 33.1798 0.559995C31.9101 0.256531 30.5805 0.318753 29.3448 0.739461C28.109 1.16017 27.0177 1.92217 26.197 2.93729C25.3762 3.95241 24.8597 5.17917 24.7072 6.47562C24.5546 7.77206 24.7722 9.08521 25.3349 10.2631C25.8975 11.441 26.7822 12.4356 27.8865 13.1317C28.9908 13.8277 30.2697 14.1969 31.575 14.1965C31.9176 14.1965 32.2464 14.1443 32.5736 14.0966C32.4676 14.453 32.3585 14.8156 32.1834 15.1413C32.0083 15.6144 31.7348 16.0246 31.4629 16.4378C31.2355 16.8848 30.8346 17.1875 30.5396 17.57C30.2309 17.9418 29.8099 18.1891 29.4766 18.4979C29.1494 18.8205 28.7208 18.9818 28.3797 19.2091C28.0233 19.4135 27.713 19.6393 27.3812 19.7468L26.5532 20.0878L25.825 20.3905L26.5685 23.3692L27.4857 23.148C27.7791 23.0742 28.137 22.9882 28.5441 22.8853C28.9604 22.8085 29.4044 22.598 29.899 22.406C30.386 22.1863 30.9529 22.0404 31.4783 21.6886C32.0067 21.3537 32.6166 21.0741 33.1543 20.6255C33.675 20.1631 34.3034 19.7622 34.7673 19.1753C35.2742 18.6254 35.775 18.0478 36.1637 17.3903C36.6138 16.7635 36.9195 16.0753 37.2421 15.3947C37.534 14.7142 37.769 14.0183 37.9611 13.3424C38.3251 11.9874 38.488 10.7001 38.551 9.59861C38.6032 8.49561 38.5725 7.5785 38.508 6.91486C38.4864 6.63771 38.4541 6.36149 38.4112 6.08684ZM21.5129 6.08684L21.4745 5.82876L21.4345 5.83797C21.1616 4.56144 20.5327 3.38828 19.6208 2.45424C18.7089 1.5202 17.5511 0.863458 16.2815 0.559995C15.0118 0.256531 13.6822 0.318753 12.4465 0.739461C11.2107 1.16017 10.1194 1.92217 9.29866 2.93729C8.47794 3.95241 7.96142 5.17917 7.80885 6.47562C7.65629 7.77206 7.87392 9.08521 8.43656 10.2631C8.99921 11.441 9.88387 12.4356 10.9882 13.1317C12.0925 13.8277 13.3714 14.1969 14.6767 14.1965C15.0193 14.1965 15.3481 14.1443 15.6753 14.0966C15.5693 14.453 15.4602 14.8156 15.2851 15.1413C15.11 15.6144 14.8365 16.0246 14.5646 16.4378C14.3372 16.8848 13.9363 17.1875 13.6413 17.57C13.3326 17.9418 12.9116 18.1891 12.5783 18.4979C12.2511 18.8205 11.8225 18.9818 11.4814 19.2091C11.125 19.4135 10.8147 19.6393 10.4829 19.7468L9.65488 20.0878C9.19248 20.2768 8.92825 20.3874 8.92825 20.3874L9.67178 23.3661L10.5889 23.1449C10.8823 23.0712 11.2402 22.9851 11.6473 22.8822C12.0637 22.8054 12.5076 22.5949 13.0023 22.4029C13.4893 22.1832 14.0561 22.0373 14.5815 21.6855C15.11 21.3506 15.7198 21.071 16.2575 20.6224C16.7783 20.16 17.4066 19.7591 17.8705 19.1723C18.3775 18.6223 18.8783 18.0447 19.2669 17.3872C19.717 16.7604 20.0228 16.0722 20.3454 15.3917C20.6372 14.7111 20.8723 14.0152 21.0643 13.3393C21.4284 11.9843 21.5912 10.697 21.6542 9.59554C21.7064 8.49254 21.6757 7.57543 21.6112 6.91178C21.5883 6.63572 21.5555 6.36056 21.5129 6.08684Z" fill="#3E817D"/>
</g>
<defs>
<filter id="filter0_d_121_2622" x="0.0952797" y="0.370605" width="46.1484" height="38.3309" filterUnits="userSpaceOnUse" color-interpolation-filters="sRGB">
<feFlood flood-opacity="0" result="BackgroundImageFix"/>
<feColorMatrix in="SourceAlpha" type="matrix" values="0 0 0 0 0 0 0 0 0 0 0 0 0 0 0 0 0 0 127 0" result="hardAlpha"/>
<feOffset dy="7.66619"/>
<feGaussianBlur stdDeviation="3.8331"/>
<feColorMatrix type="matrix" values="0 0 0 0 0.85 0 0 0 0 0.240833 0 0 0 0 0.350483 0 0 0 0.2 0"/>
<feBlend mode="normal" in2="BackgroundImageFix" result="effect1_dropShadow_121_2622"/>
<feBlend mode="normal" in="SourceGraphic" in2="effect1_dropShadow_121_2622" result="shape"/>
</filter>
</defs>
</svg>
